<svg width="42" height="42" viewBox="0 0 42 42" fill="none" xmlns="http://www.w3.org/2000/svg">
  <rect width="42" height="42" rx="21" fill="#F61C0D" />
  <path
    d="M27.8392 28.7646H14.1608C13.6141 28.7646 13.0728 28.6583 12.5679 28.4516C12.0629 28.2449 11.6041 27.942 11.2177 27.5602C10.8313 27.1783 10.5249 26.725 10.3159 26.2261C10.107 25.7273 9.99964 25.1927 10 24.6528V17.3471C9.99964 16.8072 10.107 16.2726 10.3159 15.7738C10.5249 15.2749 10.8313 14.8216 11.2177 14.4397C11.6041 14.0579 12.0629 13.755 12.5679 13.5483C13.0728 13.3416 13.6141 13.2352 14.1608 13.2352H27.8392C28.3859 13.2352 28.9271 13.3416 29.4321 13.5483C29.9371 13.755 30.3959 14.0579 30.7823 14.4397C31.1687 14.8216 31.4751 15.2749 31.6841 15.7738C31.893 16.2726 32.0004 16.8072 32 17.3471V24.6528C32.0004 25.1927 31.893 25.7273 31.6841 26.2261C31.4751 26.725 31.1687 27.1783 30.7823 27.5602C30.3959 27.942 29.9371 28.2449 29.4321 28.4516C28.9271 28.6583 28.3859 28.7646 27.8392 28.7646ZM18.1015 17.6703V24.3296L23.8985 20.9999L18.1015 17.6703Z"
    fill="white" />
</svg>